PathFileType	4	(X/Y/Z)	D:\TRACE\spot_10-12-23\spot_arm_body_motion_3_9-platform.trc
DataRate	CameraRate	NumFrames	NumMarkers	Units	OrigDataRate	OrigDataStartFrame	OrigNumFrames
100.00	100.00	      24	5	mm	100.00	1751	      7000
Frame#	Time	Left_Front			Right_Front			Left_Aft			Right_Aft			Post			
		X1	Y1	Z1	X2	Y2	Z2	X3	Y3	Z3	X4	Y4	Z4	X5	Y5	Z5	

1751	17.500	-766.33508	29.17964	-635.73944	806.39319	34.03519	-628.67029	-683.06207	-11.01066	501.68188	734.14069	-9.04704	587.73730	16.35671	777.48663	-928.45868	
1752	17.510	-766.31042	29.28605	-635.74408	806.40308	34.11727	-628.66595	-683.12878	-11.02793	501.72791	734.14948	-9.08147	587.72168	16.54158	777.54120	-928.07849	
1753	17.520	-766.26697	29.33344	-635.73737	806.43036	34.21027	-628.66486	-683.12799	-11.04643	501.73300	734.10510	-9.18059	587.72760	16.70823	777.74591	-927.90234	
1754	17.530	-766.28949	29.44623	-635.71136	806.44751	34.21224	-628.70093	-683.12561	-11.07015	501.75931	734.11230	-9.24568	587.71350	16.67630	777.86145	-927.70978	
1755	17.540	-766.26251	29.40319	-635.69843	806.39050	34.20918	-628.71600	-683.15735	-11.12029	501.76315	734.13440	-9.23974	587.73071	18.79573	776.96436	-928.44110	
1756	17.550	-766.28943	29.39603	-635.66119	806.40875	34.28291	-628.65375	-683.11096	-11.14368	501.81229	734.10504	-9.26338	587.75787	16.70444	777.93689	-927.28241	
1757	17.560	-766.31989	29.53230	-635.63843	806.35382	34.32038	-628.72272	-683.09833	-11.29816	501.87915	734.11072	-9.30739	587.75879	16.71825	778.05615	-927.23370	
1758	17.570	-766.35968	29.65454	-635.59882	806.34094	34.45639	-628.71869	-683.10706	-11.25815	501.84259	734.10034	-9.39549	587.71283	16.76653	778.20660	-927.23627	
1759	17.580	-766.51196	29.76385	-635.56525	806.33850	34.53571	-628.66003	-683.24359	-11.24389	501.71637	734.00507	-9.44692	587.71704	16.69245	778.30634	-927.27814	
1760	17.590	-766.67133	29.88284	-635.51855	806.11780	34.58179	-628.69739	-683.27277	-11.34196	501.92963	733.80487	-9.50770	587.74579	16.63022	778.37372	-927.41101	
1761	17.600	-766.77814	29.82353	-635.50159	805.97723	34.67134	-628.64075	-683.43396	-11.35829	501.92429	733.68573	-9.51621	587.83691	18.01327	777.91479	-928.40204	
1762	17.610	-766.93781	29.90170	-635.49030	805.78558	34.70803	-628.67828	-683.59222	-11.34218	501.74893	733.59930	-9.54410	587.84113	17.16444	778.39954	-928.27832	
1763	17.620	-767.11090	29.81579	-635.51654	805.72559	34.84407	-628.58374	-683.66718	-11.46860	501.76340	733.48859	-9.55554	587.82813	15.93926	778.69348	-927.72620	
1764	17.630	-767.20099	29.91146	-635.52679	805.65167	34.83447	-628.57904	-683.80939	-11.48140	501.77206	733.46143	-9.61714	587.83984	15.88459	778.75586	-927.65668	
1765	17.640	-767.32404	29.94030	-635.50928	805.58490	34.87520	-628.55664	-683.86871	-11.52788	501.81885	733.39038	-9.66103	587.82477	15.83650	778.75195	-927.48712	
1766	17.650	-767.34961	30.03111	-635.46002	805.47211	34.98063	-628.51990	-683.89941	-11.61144	501.80258	733.34253	-9.61777	587.85956	15.79234	778.72052	-927.18341	
1767	17.660	-767.45825	30.02463	-635.48328	805.34894	34.97856	-628.55988	-684.07703	-11.60789	501.75867	733.28442	-9.59743	587.85986	15.72376	778.71576	-926.93134	
1768	17.670	-767.57495	30.01768	-635.51703	805.34729	34.99126	-628.46283	-684.21844	-11.61324	501.77869	733.13715	-9.66125	587.84607	16.98330	778.44525	-927.52576	
1769	17.680	-767.67712	30.08205	-635.48883	805.28101	34.96792	-628.46118	-684.40393	-11.57445	501.74652	732.94696	-9.64163	587.81012	15.44058	778.76147	-926.62311	
1770	17.690	-767.77942	30.10332	-635.49475	805.10364	35.02707	-628.48767	-684.60095	-11.60116	501.80914	732.80176	-9.67568	587.82660	15.31874	778.81543	-926.61285	
1771	17.700	-767.92908	30.19734	-635.42615	805.09167	35.03029	-628.43762	-684.75372	-11.69993	501.77859	732.58795	-9.78425	587.83606	15.21026	778.88708	-926.58380	
1772	17.710	-768.01807	30.22810	-635.39972	804.82526	35.03534	-628.47925	-684.91248	-11.67203	501.80490	732.38165	-9.72584	587.87372	15.08484	778.81976	-926.48016	
1773	17.720	-768.12964	30.20192	-635.41754	804.64056	35.03249	-628.46063	-685.13745	-11.69473	501.76099	732.23749	-9.81010	587.86499	14.73353	778.98315	-926.79181	
1774	17.730	-768.33044	30.29096	-635.40320	804.43402	35.15336	-628.52197	-685.24481	-11.67564	501.77658	732.11169	-9.86641	587.87115	14.58485	779.10059	-926.92950	
